<svg width="64" height="64" viewBox="0 0 64 68" xmlns="http://www.w3.org/2000/svg"><defs><filter id="g"><feGaussianBlur stdDeviation="2.5" result="blur"/><feMerge><feMergeNode in="blur"/><feMergeNode in="SourceGraphic"/></feMerge></filter></defs><polygon points="32,2 59,18 59,50 32,66 5,50 5,18" fill="none" stroke="#7b2fff" stroke-width="1.8" filter="url(#g)"/><polygon points="32,12 50,23 50,45 32,56 14,45 14,23" fill="none" stroke="#00d4ff" stroke-width="0.8" opacity="0.6"/><g fill="#00ff88"><rect x="18" y="22" width="4" height="20" rx="0.5"/><rect x="22" y="22" width="4" height="4" rx="0.5"/><rect x="26" y="26" width="4" height="4" rx="0.5"/><rect x="30" y="30" width="4" height="4" rx="0.5"/><rect x="34" y="26" width="4" height="4" rx="0.5"/><rect x="38" y="22" width="4" height="4" rx="0.5"/><rect x="42" y="22" width="4" height="20" rx="0.5"/></g></svg>